<svg width="16" height="12" viewBox="0 0 16 12" fill="none" xmlns="http://www.w3.org/2000/svg">
<g clip-path="url(#clip0_4648_21326)">
<path d="M10.98 5.3601C10.593 5.3601 10.335 5.6181 10.335 6.0051C10.3386 6.59863 10.2243 7.18696 9.99884 7.736C9.77336 8.28504 9.44115 8.78386 9.02145 9.20356C8.60176 9.62325 8.10294 9.95547 7.5539 10.1809C7.00486 10.4064 6.41652 10.5207 5.823 10.5171H5.372C5.242 10.5171 5.178 10.5171 5.05 10.4531C4.92 10.4531 4.856 10.3881 4.727 10.3881C4.663 10.3881 4.598 10.3241 4.534 10.3241C4.083 10.1951 3.631 9.9371 3.244 9.6791C3.18 9.6151 3.116 9.6151 3.116 9.5501C3.051 9.4861 2.986 9.4211 2.922 9.4211C2.793 9.3571 2.664 9.2281 2.6 9.1641L2.471 9.0341L3.631 8.8411C3.80041 8.80423 3.94889 8.70303 4.04514 8.55883C4.1414 8.41463 4.17792 8.2387 4.147 8.0681C4.11013 7.89869 4.00893 7.75021 3.86473 7.65396C3.72053 7.5577 3.54459 7.52118 3.374 7.5521L1.246 7.9391L0.730999 8.0681C0.648688 8.07007 0.568627 8.09536 0.500121 8.14103C0.431615 8.1867 0.377477 8.25088 0.343999 8.3261C0.271404 8.46606 0.227222 8.61899 0.213999 8.7761L0.730999 11.4841C0.794999 11.8071 1.053 12.0001 1.375 12.0001H1.505C1.67443 11.963 1.82283 11.8616 1.91891 11.7172C2.01499 11.5728 2.05123 11.3967 2.02 11.2261L1.826 10.1311C1.956 10.2591 2.149 10.3881 2.278 10.5171H2.342C2.407 10.5821 2.471 10.6471 2.535 10.6471C2.665 10.7751 2.793 10.8401 2.987 10.9041C3.116 11.1621 3.309 11.2261 3.502 11.3551H3.567C3.631 11.4201 3.76 11.4201 3.889 11.4851C4.147 11.5491 4.405 11.6131 4.599 11.6781C4.727 11.6781 4.856 11.7421 4.985 11.7421H5.759C6.52165 11.7451 7.27736 11.5972 7.98254 11.3067C8.68772 11.0163 9.32843 10.5891 9.86771 10.0498C10.407 9.51053 10.8342 8.86982 11.1246 8.16464C11.4151 7.45946 11.563 6.70375 11.56 5.9411C11.625 5.6181 11.302 5.3601 10.98 5.3601ZM0.729999 6.6501C1.117 6.6501 1.375 6.3921 1.375 6.0051C1.37141 5.41149 1.48571 4.82307 1.71125 4.27397C1.93679 3.72486 2.26909 3.226 2.68889 2.80629C3.10869 2.38658 3.60764 2.05439 4.15679 1.82897C4.70595 1.60355 5.29439 1.48938 5.888 1.4931H6.338C6.468 1.4931 6.532 1.4931 6.661 1.5571C6.791 1.5571 6.855 1.6221 6.984 1.6221C7.048 1.6221 7.112 1.6861 7.177 1.6861C7.628 1.8151 8.079 2.0081 8.467 2.3311C8.531 2.3951 8.595 2.3951 8.66 2.4601C8.724 2.5241 8.789 2.5241 8.853 2.5881C8.917 2.6531 8.982 2.7821 9.111 2.8461L9.24 2.9761L8.08 3.1691C7.91059 3.20597 7.76211 3.30717 7.66585 3.45137C7.5696 3.59557 7.53308 3.77151 7.564 3.9421C7.628 4.2641 7.886 4.4581 8.208 4.4581H8.338L11.045 3.9421C11.2142 3.90501 11.3625 3.80372 11.4585 3.65954C11.5546 3.51537 11.5909 3.33956 11.56 3.1691L11.045 0.526101C11.0081 0.356282 10.9066 0.20747 10.762 0.111163C10.6173 0.0148564 10.4409 -0.0213881 10.27 0.0101012C10.1006 0.0469728 9.95211 0.148172 9.85585 0.292371C9.7596 0.43657 9.72308 0.612506 9.754 0.783101L9.95 1.8801C9.82 1.7511 9.628 1.5581 9.499 1.4941H9.434C9.37 1.4291 9.305 1.3641 9.241 1.3641C9.111 1.2361 8.983 1.1711 8.79 1.0421C8.596 0.913101 8.403 0.849101 8.21 0.720101H8.145C8.079 0.655101 7.95 0.655101 7.822 0.590101C7.58316 0.534024 7.34635 0.469652 7.112 0.397101C6.984 0.397101 6.855 0.332101 6.726 0.332101H5.953C5.1901 0.328794 4.43409 0.476602 3.72861 0.766996C3.02313 1.05739 2.38214 1.48462 1.84264 2.02403C1.30313 2.56344 0.875792 3.20436 0.585276 3.90979C0.294761 4.61522 0.146823 5.3712 0.149999 6.1341C0.0859987 6.3921 0.343999 6.6501 0.729999 6.6501Z" fill="white"/>
</g>
<defs>
<clipPath id="clip0_4648_21326">
<rect width="12" height="12" fill="white"/>
</clipPath>
</defs>
</svg>
